The story of an Indian boy named Pi, a zookeeper's son who finds himself in the company of a hyena, zebra, orangutan, and a Bengal tiger after a shipwreck sets them adrift in the Pacific Ocean.

Starring: Irrfan Khan, Sonu Sood, Adil Hussain, Rafe Spall, Gerard Depardieu, Suraj Sharma, Irfan Khan, Tabu
Director: Ang Lee

 
http://www.imdb.com/title/tt0454876/


 
http://stpicz.com/3845_vlcsnap_2013_03_13_20h22m47s127_ls91.png 
http://stpicz.com/4574_vlcsnap_2013_03_13_20h43m59s67_r3jk.png 
http://stpicz.com/5682_vlcsnap_2013_03_13_20h30m16s12_0lf0.png 
http://stpicz.com/4785_vlcsnap_2013_03_13_20h29m01s38_lrov.png 
http://stpicz.com/7337_vlcsnap_2013_03_13_20h34m59s34_151q.png 
http://stpicz.com/6220_vlcsnap_2013_03_13_20h40m46s173_c3qn.png 
http://stpicz.com/9046_vlcsnap_2013_03_13_20h44m24s51_izza.png



General
Unique ID: 232437042874359430218001874414481022875 (0xAEDDBF00C7BAFD6EB4C2E84AF4359F9B)
Complete name: D:Life Of Pi (2012) 720p MKV x264 DTS BRrip [Pioneer].mkv
Format: Matroska
Format version: Version 4 / Version 2
File size: 3.56 GiB
Duration: 2h 6mn
Overall bit rate: 4 011 Kbps
Encoded date: UTC 2013-03-12 23:19:14
Writing application: mkvmerge v6.1.0 ('Old Devil') built on Mar  2 2013 14:32:37
Writing library: libebml v1.3.0 + libmatroska v1.4.0

Video
ID: 1
Format: AVC
Format/Info: Advanced Video Codec
Format profile: High@L4.0
Format settings, CABAC: Yes
Format settings, ReFrames: 5 frames
Codec ID: V_MPEG4/ISO/AVC
Duration: 2h 6mn
Bit rate: 2 500 Kbps
Width: 1 280 pixels
Height: 688 pixels
Display aspect ratio: 1.85:1
Frame rate mode: Constant
Frame rate: 23.976 fps
Color space: YUV
Chroma subsampling: 4:2:0
Bit depth: 8 bits
Scan type: Progressive
Bits/(Pixel*Frame): 0.118
Stream size: 2.15 GiB (60%)
Writing library: x264 core 120
Language: English
Default: Yes
Forced: No
Color primaries: BT.709
Transfer characteristics: BT.709
Matrix coefficients: BT.709

Audio
ID: 9
Format: DTS
Format/Info: Digital Theater Systems
Format profile: ES
Mode: 16
Format settings, Endianness: Big
Codec ID: A_DTS
Duration: 2h 6mn
Bit rate mode: Constant
Bit rate: 1 509 Kbps
Channel(s): 6 channels
Channel positions: Front: L C R, Side: L R, LFE
Sampling rate: 48.0 KHz
Bit depth: 24 bits
Compression mode: Lossy
Stream size: 1.34 GiB (38%)
Language: English
Default: No
Forced: No

Text #1
ID: 2
Format: UTF-8
Codec ID: S_TEXT/UTF8
Codec ID/Info: UTF-8 Plain Text
Language: Arabic
Default: Yes
Forced: No

Text #2
ID: 3
Format: UTF-8
Codec ID: S_TEXT/UTF8
Codec ID/Info: UTF-8 Plain Text
Language: Portuguese
Default: No
Forced: No

Text #3
ID: 4
Format: UTF-8
Codec ID: S_TEXT/UTF8
Codec ID/Info: UTF-8 Plain Text
Language: English
Default: No
Forced: No

Text #4
ID: 5
Format: UTF-8
Codec ID: S_TEXT/UTF8
Codec ID/Info: UTF-8 Plain Text
Language: Persian
Default: No
Forced: No

Text #5
ID: 6
Format: UTF-8
Codec ID: S_TEXT/UTF8
Codec ID/Info: UTF-8 Plain Text
Language: German
Default: No
Forced: No

Text #6
ID: 7
Format: UTF-8
Codec ID: S_TEXT/UTF8
Codec ID/Info: UTF-8 Plain Text
Language: Russian
Default: No
Forced: No

Text #7
ID: 8
Format: UTF-8
Codec ID: S_TEXT/UTF8
Codec ID/Info: UTF-8 Plain Text
Language: Swedish
Default: No
Forced: No